<?xml version="1.0" encoding="UTF-8" standalone="no"?>
<svg
   width="429.96899"
   height="349.67001"
   viewBox="0 0 402.70934 327.50123"
   class="css-1j8o68f"
   version="1.1"
   id="svg15"
   sodipodi:docname="brain-transparent.svg"
   inkscape:version="1.1.2 (0a00cf5339, 2022-02-04)"
   inkscape:export-filename="/home/alec/Programming/hackathon/logo-concept/logo.png"
   inkscape:export-xdpi="96"
   inkscape:export-ydpi="96"
   xmlns:inkscape="http://www.inkscape.org/namespaces/inkscape"
   xmlns:sodipodi="http://sodipodi.sourceforge.net/DTD/sodipodi-0.dtd"
   xmlns="http://www.w3.org/2000/svg"
   xmlns:svg="http://www.w3.org/2000/svg">
  <sodipodi:namedview
     id="namedview17"
     pagecolor="#ffffff"
     bordercolor="#666666"
     borderopacity="1.0"
     inkscape:pageshadow="2"
     inkscape:pageopacity="0.0"
     inkscape:pagecheckerboard="0"
     showgrid="false"
     inkscape:zoom="1.0213151"
     inkscape:cx="216.38768"
     inkscape:cy="118.4747"
     inkscape:window-width="1920"
     inkscape:window-height="1043"
     inkscape:window-x="1920"
     inkscape:window-y="438"
     inkscape:window-maximized="1"
     inkscape:current-layer="layer1" />
  <defs
     id="SvgjsDefs1836" />
  <g
     id="SvgjsG1838"
     featurekey="ewgXDI-0"
     transform="matrix(5.1691045,0,0,5.1691045,-7.5210491,142.9935)"
     fill="#f2f4f7" />
  <g
     inkscape:groupmode="layer"
     id="layer2"
     inkscape:label="bg" />
  <g
     inkscape:groupmode="layer"
     id="layer1"
     inkscape:label="logo">
    <g
       id="SvgjsG1837"
       featurekey="7KWit6-0"
       transform="matrix(4.5,0,0,4.5,57.35467,19.750618)"
       fill="#f2f4f7"
       inkscape:export-filename="/home/alec/Programming/hackathon/logo/brain-transparent.png"
       inkscape:export-xdpi="999"
       inkscape:export-ydpi="999">
      <g
         id="g9">
        <path
           d="m 61,32 h -6.142 a 4,4 0 1 0 0,2 H 60 v 7 H 43 v -9 h -2 v 9 h -4 a 1,1 0 0 0 -0.9,1.428 L 44.42,60 H 35.6 L 26.656,43 H 32 a 1,1 0 0 0 1,-1 v -5.142 a 4,4 0 1 0 -2,0 V 41 H 22 V 30.414 L 28.414,24 h 9.728 a 4,4 0 1 0 0,-2 H 28 a 1,1 0 0 0 -0.707,0.293 l -7,7 A 1,1 0 0 0 20,30 v 11 h -7 v -5 h -2 v 5 H 9.414 L 4,35.586 V 30 h 4.142 a 4,4 0 1 0 0,-2 H 3 a 1,1 0 0 0 -1,1 v 7 a 1,1 0 0 0 0.293,0.707 l 6,6 A 1,1 0 0 0 9,43 h 15.4 l 9.719,18.466 A 1,1 0 0 0 35,62 h 11 a 1,1 0 0 0 0.9,-1.428 L 44.264,55 H 55 a 1,1 0 0 0 0.707,-0.293 l 6,-6 A 1,1 0 0 0 62,48 V 46 A 1,1 0 0 0 61,45 H 43 v 2 h 17 v 0.586 L 58.586,49 H 45 v 2 h 11.586 l -2,2 H 43.317 L 38.58,43 H 61 a 1,1 0 0 0 1,-1 v -9 a 1,1 0 0 0 -1,-1 z m -10,3 a 2,2 0 1 1 2,-2 2,2 0 0 1 -2,2 z M 30,33 a 2,2 0 1 1 2,2 2,2 0 0 1 -2,-2 z M 42,21 a 2,2 0 1 1 -2,2 2,2 0 0 1 2,-2 z m -30,6 a 2,2 0 1 1 -2,2 2,2 0 0 1 2,-2 z"
           id="path3" />
        <path
           d="m 4,19 h 7.586 l 4.707,4.707 1.414,-1.414 -5,-5 A 1,1 0 0 0 12,17 H 4 V 14.414 L 14.414,4 H 17 v 4.142 a 4,4 0 1 0 2,0 V 4 h 12 v 6.142 a 4,4 0 1 0 2,0 V 3 A 1,1 0 0 0 32,2 H 14 a 1,1 0 0 0 -0.707,0.293 l -11,11 A 1,1 0 0 0 2,14 v 12 h 2 z m 16,-7 a 2,2 0 1 1 -2,-2 2,2 0 0 1 2,2 z m 14,2 a 2,2 0 1 1 -2,-2 2,2 0 0 1 2,2 z"
           id="path5" />
        <path
           d="M 50.707,2.293 A 1,1 0 0 0 50,2 H 35 v 2 h 10 v 4.142 a 4,4 0 1 0 2,0 V 4 h 2.586 L 60,14.414 V 22 h -9 v 2 h 9 v 6 h 2 V 14 A 1,1 0 0 0 61.707,13.293 Z M 48,12 a 2,2 0 1 1 -2,-2 2,2 0 0 1 2,2 z"
           id="path7" />
      </g>
    </g>
  </g>
</svg>
