<?xml version="1.0" encoding="UTF-8" standalone="no"?>
<svg
   width="429.96899"
   height="349.67001"
   viewBox="0 0 402.70934 327.50123"
   class="css-1j8o68f"
   version="1.1"
   id="svg15"
   sodipodi:docname="logo.svg"
   inkscape:version="1.1.2 (0a00cf5339, 2022-02-04)"
   inkscape:export-filename="/home/alec/Programming/hackathon/logo-concept/logo.png"
   inkscape:export-xdpi="96"
   inkscape:export-ydpi="96"
   xmlns:inkscape="http://www.inkscape.org/namespaces/inkscape"
   xmlns:sodipodi="http://sodipodi.sourceforge.net/DTD/sodipodi-0.dtd"
   xmlns="http://www.w3.org/2000/svg"
   xmlns:svg="http://www.w3.org/2000/svg">
  <sodipodi:namedview
     id="namedview17"
     pagecolor="#ffffff"
     bordercolor="#666666"
     borderopacity="1.0"
     inkscape:pageshadow="2"
     inkscape:pageopacity="0.0"
     inkscape:pagecheckerboard="0"
     showgrid="false"
     inkscape:zoom="1.0213151"
     inkscape:cx="216.38768"
     inkscape:cy="118.4747"
     inkscape:window-width="1920"
     inkscape:window-height="935"
     inkscape:window-x="0"
     inkscape:window-y="932"
     inkscape:window-maximized="1"
     inkscape:current-layer="layer2" />
  <defs
     id="SvgjsDefs1836" />
  <g
     id="SvgjsG1838"
     featurekey="ewgXDI-0"
     transform="matrix(5.1691045,0,0,5.1691045,-7.5210491,142.9935)"
     fill="#f2f4f7" />
  <g
     inkscape:groupmode="layer"
     id="layer2"
     inkscape:label="bg" />
  <g
     inkscape:groupmode="layer"
     id="layer1"
     inkscape:label="logo">
    <path
       d="m 81.996078,228.63383 c 12.468397,0 19.333482,6.46139 19.333482,17.97091 v 34.93178 H 86.740799 v -31.80188 c 0,-6.91575 -4.29077,-9.43982 -9.288364,-9.43982 -6.007016,0 -11.458871,3.02878 -11.559668,12.61985 v 28.62185 H 51.354661 v -51.89264 h 14.538106 v 5.75476 c 3.634552,-4.29077 9.237707,-6.76429 16.102794,-6.76429 z m 57.597152,53.9102 c -16.50702,0 -28.41974,-10.04564 -28.41974,-27.00651 0,-16.86006 11.81244,-26.9057 28.41974,-26.9057 16.70861,0 28.47039,10.04564 28.47039,26.9057 0,16.96139 -11.81244,27.00651 -28.47039,27.00651 z m -0.15146,-11.55972 c 8.4303,0 14.18454,-6.15847 14.18454,-15.44684 0,-9.28836 -5.75476,-15.44683 -14.18454,-15.44683 -8.12738,0 -13.83149,6.15847 -13.83149,15.44683 0,9.28837 5.70411,15.44684 13.83149,15.44684 z m 58.7582,10.55014 c -10.09578,0 -15.85054,-5.85556 -15.85054,-16.20411 v -24.53309 h -10.19709 v -11.15596 h 3.28119 c 5.50251,0 8.53109,-2.12016 8.53109,-9.89418 v -6.86509 h 13.12487 v 16.75927 h 10.7016 v 11.15596 h -10.7016 v 22.9684 c 0,4.64413 2.27157,6.71364 6.00702,6.71364 h 4.69458 v 11.05516 h -9.59127 z m 69.65956,-26.70359 -0.15145,3.48309 H 229.2427 c 0.60577,8.63189 6.36059,12.77131 13.27633,12.77131 5.1996,0 9.23771,-2.42302 11.20662,-7.01654 l 13.32647,1.9687 c -3.4326,10.5 -12.77131,16.50702 -24.43229,16.50702 -16.75927,0 -27.71312,-9.89418 -27.71312,-26.95584 0,-17.06167 11.25676,-27.05717 27.25875,-27.05717 14.68957,0 25.64341,8.12739 25.69407,26.29989 z m -25.59068,-16.002 c -6.61284,0 -11.20662,3.07923 -12.61986,9.99498 h 23.82647 c -0.75717,-6.61284 -5.24974,-9.99498 -11.20661,-9.99498 z m 79.20221,28.62185 c 0,6.36058 0.60577,10.39869 1.26199,12.67051 v 1.41344 h -13.57924 l -1.16104,-5.65397 c -3.8869,4.69458 -10.60079,6.66349 -16.65847,6.66349 -8.17752,0 -16.15345,-3.63455 -16.15345,-14.43731 0,-10.75225 8.02607,-14.38665 18.87912,-16.75927 l 8.53109,-1.9182 c 3.685,-0.85817 4.99749,-2.12016 4.99749,-4.24027 0,-5.09844 -4.64413,-6.51204 -8.7332,-6.51204 -5.24974,0 -9.23771,2.06966 -10.14644,7.92528 l -12.8721,-2.32207 c 2.17061,-10.75225 10.04564,-15.64843 23.82647,-15.64843 10.39869,0 21.80742,3.07924 21.80742,18.72767 v 20.09075 z m -25.59327,5.24974 c 6.91574,0 12.4684,-4.59363 12.4684,-14.89167 l -12.31695,3.48309 c -4.03836,0.95913 -6.9664,2.37252 -6.9664,5.85557 0,3.7355 3.07924,5.55265 6.81495,5.55265 z"
       id="path12"
       style="fill:#f2f4f7;fill-opacity:1;stroke-width:5.1691"
       sodipodi:nodetypes="csccssccccccccsssssssssscscccssccccccsscccccccsccsssccsccscccccssccssccsscccccscc" />
    <g
       id="SvgjsG1837"
       featurekey="7KWit6-0"
       transform="matrix(2,0,0,2,137.35467,38.09803)"
       fill="#f2f4f7">
      <g
         id="g9">
        <path
           d="m 61,32 h -6.142 a 4,4 0 1 0 0,2 H 60 v 7 H 43 v -9 h -2 v 9 h -4 a 1,1 0 0 0 -0.9,1.428 L 44.42,60 H 35.6 L 26.656,43 H 32 a 1,1 0 0 0 1,-1 v -5.142 a 4,4 0 1 0 -2,0 V 41 H 22 V 30.414 L 28.414,24 h 9.728 a 4,4 0 1 0 0,-2 H 28 a 1,1 0 0 0 -0.707,0.293 l -7,7 A 1,1 0 0 0 20,30 v 11 h -7 v -5 h -2 v 5 H 9.414 L 4,35.586 V 30 h 4.142 a 4,4 0 1 0 0,-2 H 3 a 1,1 0 0 0 -1,1 v 7 a 1,1 0 0 0 0.293,0.707 l 6,6 A 1,1 0 0 0 9,43 h 15.4 l 9.719,18.466 A 1,1 0 0 0 35,62 h 11 a 1,1 0 0 0 0.9,-1.428 L 44.264,55 H 55 a 1,1 0 0 0 0.707,-0.293 l 6,-6 A 1,1 0 0 0 62,48 V 46 A 1,1 0 0 0 61,45 H 43 v 2 h 17 v 0.586 L 58.586,49 H 45 v 2 h 11.586 l -2,2 H 43.317 L 38.58,43 H 61 a 1,1 0 0 0 1,-1 v -9 a 1,1 0 0 0 -1,-1 z m -10,3 a 2,2 0 1 1 2,-2 2,2 0 0 1 -2,2 z M 30,33 a 2,2 0 1 1 2,2 2,2 0 0 1 -2,-2 z M 42,21 a 2,2 0 1 1 -2,2 2,2 0 0 1 2,-2 z m -30,6 a 2,2 0 1 1 -2,2 2,2 0 0 1 2,-2 z"
           id="path3" />
        <path
           d="m 4,19 h 7.586 l 4.707,4.707 1.414,-1.414 -5,-5 A 1,1 0 0 0 12,17 H 4 V 14.414 L 14.414,4 H 17 v 4.142 a 4,4 0 1 0 2,0 V 4 h 12 v 6.142 a 4,4 0 1 0 2,0 V 3 A 1,1 0 0 0 32,2 H 14 a 1,1 0 0 0 -0.707,0.293 l -11,11 A 1,1 0 0 0 2,14 v 12 h 2 z m 16,-7 a 2,2 0 1 1 -2,-2 2,2 0 0 1 2,2 z m 14,2 a 2,2 0 1 1 -2,-2 2,2 0 0 1 2,2 z"
           id="path5" />
        <path
           d="M 50.707,2.293 A 1,1 0 0 0 50,2 H 35 v 2 h 10 v 4.142 a 4,4 0 1 0 2,0 V 4 h 2.586 L 60,14.414 V 22 h -9 v 2 h 9 v 6 h 2 V 14 A 1,1 0 0 0 61.707,13.293 Z M 48,12 a 2,2 0 1 1 -2,-2 2,2 0 0 1 2,2 z"
           id="path7" />
      </g>
    </g>
    <path
       d="m 351.75311,269.20117 -9.14679,13.34327 -9.14509,-13.34268 z m 0,0 0.01,-39.3817 -18.29669,-8.1e-4 -0.005,39.3831 z m -18.28695,-52.56289 5.1e-4,8.77486 18.29671,-0.002 -0.003,-8.77798 z"
       id="path7249"
       style="fill:#f2f4f7;fill-opacity:1;stroke-width:2.23792"
       sodipodi:nodetypes="cccccccccccccc" />
  </g>
</svg>
